<svg xmlns="http://www.w3.org/2000/svg" version="1.1" xmlns:xlink="http://www.w3.org/1999/xlink" xmlns:svgjs="http://svgjs.dev/svgjs" width="2560" height="1600" preserveAspectRatio="none" viewBox="0 0 2560 1600">
    <g mask="url(&quot;#SvgjsMask1249&quot;)" fill="none">
        <rect width="2560" height="1600" x="0" y="0" fill="url(&quot;#SvgjsLinearGradient1250&quot;)"></rect>
        <path d="M -859.9025270131893,1201 C -689.1,1069.8 -347.5,583.6 -5.902527013189308,545 C 335.7,506.4 506.5,1038.6 848.0974729868107,1008 C 1189.7,977.4 1360.5,387.4 1702.0974729868108,392 C 2043.7,396.6 2384.52,1018.8 2556.0974729868108,1031 C 2727.68,1043.2 2559.22,568.6 2560,453" stroke="rgba(59, 130, 246, 0.53)" stroke-width="2"></path>
        <path d="M -427.2820785998349,911 C -256.48,843.8 85.12,502.4 426.7179214001651,575 C 768.32,647.6 939.12,1263.4 1280.717921400165,1274 C 1622.32,1284.6 1793.12,693.4 2134.7179214001653,628 C 2476.32,562.6 2903.66,949.4 2988.7179214001653,947 C 3073.77,944.6 2645.74,682.2 2560,616" stroke="rgba(59, 130, 246, 0.53)" stroke-width="2"></path>
        <path d="M -472.9132450180631,933 C -302.11,862.2 39.49,502.4 381.0867549819369,579 C 722.69,655.6 893.49,1354.2 1235.0867549819368,1316 C 1576.69,1277.8 1747.49,485.2 2089.086754981937,388 C 2430.69,290.8 2848.9,845.2 2943.086754981937,830 C 3037.27,814.8 2636.62,415.6 2560,312" stroke="rgba(59, 130, 246, 0.53)" stroke-width="2"></path>
        <path d="M -241.11061395304353,1183 C -70.31,1070 271.29,654.2 612.8893860469565,618 C 954.49,581.8 1125.29,1045 1466.8893860469566,1002 C 1808.49,959 1979.29,443 2320.8893860469566,403 C 2662.49,363 3127.07,757.4 3174.8893860469566,802 C 3222.71,846.6 2682.98,661.2 2560,626" stroke="rgba(59, 130, 246, 0.53)" stroke-width="2"></path>
        <path d="M -897.7316584560889,774 C -726.93,811.4 -385.33,1054 -43.7316584560889,961 C 297.87,868 468.67,244.6 810.2683415439111,309 C 1151.87,373.4 1322.67,1202.8 1664.268341543911,1283 C 2005.87,1363.2 2339.12,799 2518.268341543911,710 C 2697.41,621 2551.65,812.4 2560,838" stroke="rgba(59, 130, 246, 0.53)" stroke-width="2"></path>
        <path d="M -755.7288163024632,1228 C -584.93,1049 -243.33,339.6 98.27118369753686,333 C 439.87,326.4 610.67,1168.8 952.2711836975368,1195 C 1293.87,1221.2 1464.67,461.8 1806.2711836975368,464 C 2147.87,466.2 2509.53,1176 2660.271183697537,1206 C 2811.02,1236 2580.05,732.4 2560,614" stroke="rgba(59, 130, 246, 0.53)" stroke-width="2"></path>
        <path d="M -1632.8704219749725,644 C -1462.07,683.8 -1120.47,812.4 -778.8704219749724,843 C -437.27,873.6 -266.47,795.4 75.12957802502763,797 C 416.73,798.6 587.53,927.2 929.1295780250276,851 C 1270.73,774.8 1456.96,343.2 1783.1295780250275,416 C 2109.3,488.8 2404.63,1055.2 2560,1215" stroke="rgba(59, 130, 246, 0.53)" stroke-width="2"></path>
    </g>
    <defs>
        <mask id="SvgjsMask1249">
            <rect width="2560" height="1600" fill="#ffffff"></rect>
        </mask>
        <linearGradient x1="90.63%" y1="115%" x2="9.37%" y2="-15%" gradientUnits="userSpaceOnUse" id="SvgjsLinearGradient1250">
            <stop stop-color="rgba(14, 42, 71, 1)" offset="0.27"></stop>
            <stop stop-color="rgba(0, 69, 158, 1)" offset="1"></stop>
        </linearGradient>
    </defs>
</svg>